<svg width="856" height="176" viewBox="0 0 856 176" fill="none" xmlns="http://www.w3.org/2000/svg">
<path d="M49.8125 62.8125V65C49.8125 69.5208 48.4062 73.2188 45.5938 76.0938C42.6354 79.1146 38.7812 80.625 34.0312 80.625C29.2812 80.625 25.4271 79.1146 22.4688 76.0938C19.6562 73.2188 18.25 69.5208 18.25 65V47.8125C18.25 43.2917 19.6562 39.5938 22.4688 36.7188C25.4271 33.6979 29.2812 32.1875 34.0312 32.1875C38.9479 32.1875 42.8021 33.6979 45.5938 36.7188C48.4062 39.7396 49.8125 43.2292 49.8125 47.1875L43.875 50H43.5625V47.8125C43.5625 45.0208 42.8125 42.7604 41.3125 41.0312C39.4583 38.8854 37.0312 37.8125 34.0312 37.8125C31.0312 37.8125 28.6042 38.8854 26.75 41.0312C25.25 42.7604 24.5 45.0208 24.5 47.8125V65C24.5 67.7917 25.25 70.0521 26.75 71.7812C28.6042 73.9271 31.0312 75 34.0312 75C37.0312 75 39.4583 73.9271 41.3125 71.7812C42.8125 70.0521 43.5625 68 43.5625 65.625L49.5 62.8125H49.8125Z" fill="white"/>
<path d="M93.875 62.8125V65C93.875 69.5208 92.4688 73.2188 89.6562 76.0938C86.6979 79.1146 82.8438 80.625 78.0938 80.625C73.3438 80.625 69.4896 79.1146 66.5312 76.0938C63.7188 73.2188 62.3125 69.5208 62.3125 65V47.8125C62.3125 43.2917 63.7188 39.5938 66.5312 36.7188C69.4896 33.6979 73.3438 32.1875 78.0938 32.1875C83.0104 32.1875 86.8646 33.6979 89.6562 36.7188C92.4688 39.7396 93.875 43.2292 93.875 47.1875L87.9375 50H87.625V47.8125C87.625 45.0208 86.875 42.7604 85.375 41.0312C83.5208 38.8854 81.0938 37.8125 78.0938 37.8125C75.0938 37.8125 72.6667 38.8854 70.8125 41.0312C69.3125 42.7604 68.5625 45.0208 68.5625 47.8125V65C68.5625 67.7917 69.3125 70.0521 70.8125 71.7812C72.6667 73.9271 75.0938 75 78.0938 75C81.0938 75 83.5208 73.9271 85.375 71.7812C86.875 70.0521 87.625 68 87.625 65.625L93.5625 62.8125H93.875Z" fill="white"/>
<path d="M102.625 65.625L108.562 62.8125H108.875V65C108.875 67.7917 109.625 70.0521 111.125 71.7812C112.979 73.9271 115.406 75 118.406 75C121.406 75 123.833 73.9271 125.688 71.7812C127.188 70.0521 127.938 67.7917 127.938 65V38.5H110.031V38.1875L112.562 32.8125H134.188V65C134.188 69.5 132.781 73.1979 129.969 76.0938C127.01 79.1146 123.156 80.625 118.406 80.625C113.719 80.625 109.865 79.1146 106.844 76.0938C104.031 73.3021 102.625 69.8125 102.625 65.625Z" fill="white"/>
<path d="M49.8125 119.562V131C49.8125 135.521 48.4062 139.219 45.5938 142.094C42.6354 145.115 38.7812 146.625 34.0312 146.625C29.2812 146.625 25.4271 145.115 22.4688 142.094C19.6562 139.219 18.25 135.521 18.25 131V113.812C18.25 109.292 19.6562 105.594 22.4688 102.719C25.4271 99.6979 29.2812 98.1875 34.0312 98.1875C38.9479 98.1875 42.8021 99.6979 45.5938 102.719C48.4062 105.74 49.8125 109.229 49.8125 113.188L43.875 116H43.5625V113.812C43.5625 111.021 42.8125 108.76 41.3125 107.031C39.4583 104.885 37.0312 103.812 34.0312 103.812C31.0312 103.812 28.6042 104.885 26.75 107.031C25.25 108.76 24.5 111.021 24.5 113.812V131C24.5 133.792 25.25 136.052 26.75 137.781C28.6042 139.927 31.0312 141 34.0312 141C37.0312 141 39.4583 139.927 41.3125 137.781C42.8125 136.052 43.5625 134 43.5625 131.625V125.25H32.6875V124.938L35.2188 119.562H49.8125Z" fill="white"/>
<path d="M68.5625 140.375H77.4688C80.6146 140.375 83.1146 139.385 84.9688 137.406C86.3229 135.969 87 134.073 87 131.719C87 129.281 86.2812 127.229 84.8438 125.562C83.2812 123.646 80.8229 122.688 77.4688 122.688H68.5625V140.375ZM68.5625 117.062H77.4688C79.5521 117.062 81.2292 116.385 82.5 115.031C83.625 113.823 84.1875 112.25 84.1875 110.312C84.1875 108.729 83.5104 107.302 82.1562 106.031C80.9479 104.969 79.3854 104.438 77.4688 104.438H68.5625V117.062ZM62.3125 146V100.375L65.625 98.8125H77.4688C80.9896 98.8125 83.9167 99.7708 86.25 101.688C89.0208 103.938 90.4062 106.823 90.4062 110.344C90.4062 113.927 88.8229 116.906 85.6562 119.281C86.6771 119.719 87.6875 120.375 88.6875 121.25C91.7292 124.021 93.25 127.458 93.25 131.562C93.25 135.688 91.9167 139.073 89.25 141.719C86.3958 144.573 82.4688 146 77.4688 146H62.3125Z" fill="white"/>
<path d="M105.125 147.25V113.812C105.125 109.312 106.531 105.615 109.344 102.719C112.302 99.6979 116.156 98.1875 120.906 98.1875C125.573 98.1875 129.427 99.6979 132.469 102.719C135.281 105.51 136.688 109.208 136.688 113.812V144.438L130.75 147.25H130.438V125.25H111.375V144.438L105.438 147.25H105.125ZM111.375 119.562H130.438V113.812C130.438 111.021 129.688 108.76 128.188 107.031C126.333 104.885 123.906 103.812 120.906 103.812C117.906 103.812 115.479 104.885 113.625 107.031C112.125 108.76 111.375 111.021 111.375 113.812V119.562Z" fill="white"/>
<path d="M203.359 65.1094V66.75C203.359 70.1406 202.305 72.9141 200.195 75.0703C197.977 77.3359 195.086 78.4688 191.523 78.4688C187.961 78.4688 185.07 77.3359 182.852 75.0703C180.742 72.9141 179.688 70.1406 179.688 66.75V53.8594C179.688 50.4688 180.742 47.6953 182.852 45.5391C185.07 43.2734 187.961 42.1406 191.523 42.1406C195.211 42.1406 198.102 43.2734 200.195 45.5391C202.305 47.8047 203.359 50.4219 203.359 53.3906L198.906 55.5H198.672V53.8594C198.672 51.7656 198.109 50.0703 196.984 48.7734C195.594 47.1641 193.773 46.3594 191.523 46.3594C189.273 46.3594 187.453 47.1641 186.062 48.7734C184.938 50.0703 184.375 51.7656 184.375 53.8594V66.75C184.375 68.8438 184.938 70.5391 186.062 71.8359C187.453 73.4453 189.273 74.25 191.523 74.25C193.773 74.25 195.594 73.4453 196.984 71.8359C198.109 70.5391 198.672 69 198.672 67.2188L203.125 65.1094H203.359Z" fill="white"/>
<path d="M229.375 76.8281L224.922 78.9375H224.688V76.4766C223.438 77.8047 221.758 78.4688 219.648 78.4688C216.727 78.4688 214.453 77.5859 212.828 75.8203C211.203 74.0547 210.391 71.9688 210.391 69.5625C210.391 67.0625 211.273 64.9375 213.039 63.1875C214.742 61.5 216.945 60.6562 219.648 60.6562C221.57 60.6562 223.25 61.3203 224.688 62.6484C224.688 59.8828 224.203 58.0625 223.234 57.1875C222.297 56.3438 221.102 55.9219 219.648 55.9219H213.953V55.6875L215.828 51.75H219.648C222.383 51.75 224.656 52.6328 226.469 54.3984C228.406 56.2891 229.375 58.5312 229.375 61.125V76.8281ZM214.984 69.5625C214.984 70.9531 215.406 72.1016 216.25 73.0078C217.062 73.8828 218.203 74.3203 219.672 74.3203C221.203 74.3203 222.391 73.875 223.234 72.9844C224.172 71.9844 224.641 70.8594 224.641 69.6094C224.641 68.2031 224.156 67.0625 223.188 66.1875C222.219 65.3125 221.055 64.875 219.695 64.875C218.273 64.875 217.133 65.3359 216.273 66.2578C215.414 67.1797 214.984 68.2812 214.984 69.5625Z" fill="white"/>
<path d="M235.703 69.7266L240.156 67.6172H240.391V69.4922C240.391 71.2422 240.898 72.5703 241.914 73.4766C242.883 74.3359 244.055 74.7656 245.43 74.7656C247.023 74.7656 248.266 74.2578 249.156 73.2422C250.094 72.1797 250.562 71.0234 250.562 69.7734C250.562 68.4297 250.062 67.3672 249.062 66.5859C248.203 65.9141 246.984 65.5781 245.406 65.5781C242.625 65.5781 240.43 64.9688 238.82 63.75C237.398 62.6875 236.688 61.0391 236.688 58.8047C236.688 56.6328 237.68 54.8359 239.664 53.4141C241.211 52.3047 243.133 51.75 245.43 51.75C247.633 51.75 249.547 52.4375 251.172 53.8125C252.422 54.8906 253.195 56.1406 253.492 57.5625L249.039 59.6719H248.805V58.9922C248.805 58.1797 248.57 57.4844 248.102 56.9062C247.352 55.9375 246.281 55.4531 244.891 55.4531C243.781 55.4531 242.875 55.8047 242.172 56.5078C241.484 57.1953 241.141 57.9609 241.141 58.8047C241.141 59.8047 241.562 60.6016 242.406 61.1953C242.875 61.5234 243.875 61.6875 245.406 61.6875C248.578 61.6875 250.961 62.4141 252.555 63.8672C254.289 65.4453 255.156 67.5 255.156 70.0312C255.156 72.0625 254.258 74 252.461 75.8438C250.758 77.5938 248.414 78.4688 245.43 78.4688C242.727 78.4688 240.453 77.7188 238.609 76.2188C236.672 74.6406 235.703 72.4766 235.703 69.7266Z" fill="white"/>
<path d="M279.297 76.8281L274.844 78.9375H274.609V76.4766C273.359 77.8047 271.68 78.4688 269.57 78.4688C266.648 78.4688 264.375 77.5859 262.75 75.8203C261.125 74.0547 260.312 71.9688 260.312 69.5625C260.312 67.0625 261.195 64.9375 262.961 63.1875C264.664 61.5 266.867 60.6562 269.57 60.6562C271.492 60.6562 273.172 61.3203 274.609 62.6484C274.609 59.8828 274.125 58.0625 273.156 57.1875C272.219 56.3438 271.023 55.9219 269.57 55.9219H263.875V55.6875L265.75 51.75H269.57C272.305 51.75 274.578 52.6328 276.391 54.3984C278.328 56.2891 279.297 58.5312 279.297 61.125V76.8281ZM264.906 69.5625C264.906 70.9531 265.328 72.1016 266.172 73.0078C266.984 73.8828 268.125 74.3203 269.594 74.3203C271.125 74.3203 272.312 73.875 273.156 72.9844C274.094 71.9844 274.562 70.8594 274.562 69.6094C274.562 68.2031 274.078 67.0625 273.109 66.1875C272.141 65.3125 270.977 64.875 269.617 64.875C268.195 64.875 267.055 65.3359 266.195 66.2578C265.336 67.1797 264.906 68.2812 264.906 69.5625Z" fill="white"/>
<path d="M329.922 65.1094V66.75C329.922 70.1406 328.867 72.9141 326.758 75.0703C324.539 77.3359 321.648 78.4688 318.086 78.4688C314.523 78.4688 311.633 77.3359 309.414 75.0703C307.305 72.9141 306.25 70.1406 306.25 66.75V53.8594C306.25 50.4688 307.305 47.6953 309.414 45.5391C311.633 43.2734 314.523 42.1406 318.086 42.1406C321.773 42.1406 324.664 43.2734 326.758 45.5391C328.867 47.8047 329.922 50.4219 329.922 53.3906L325.469 55.5H325.234V53.8594C325.234 51.7656 324.672 50.0703 323.547 48.7734C322.156 47.1641 320.336 46.3594 318.086 46.3594C315.836 46.3594 314.016 47.1641 312.625 48.7734C311.5 50.0703 310.938 51.7656 310.938 53.8594V66.75C310.938 68.8438 311.5 70.5391 312.625 71.8359C314.016 73.4453 315.836 74.25 318.086 74.25C320.336 74.25 322.156 73.4453 323.547 71.8359C324.672 70.5391 325.234 69 325.234 67.2188L329.688 65.1094H329.922Z" fill="white"/>
<path d="M338.125 69.0938V61.125C338.125 58.5469 339.094 56.3047 341.031 54.3984C342.844 52.6328 345.117 51.75 347.852 51.75C350.555 51.75 352.828 52.6328 354.672 54.3984C356.609 56.2734 357.578 58.5156 357.578 61.125V69.0938C357.578 71.6719 356.609 73.9141 354.672 75.8203C352.859 77.5859 350.586 78.4688 347.852 78.4688C345.148 78.4688 342.875 77.5859 341.031 75.8203C339.094 73.9453 338.125 71.7031 338.125 69.0938ZM342.812 69.0938C342.812 70.8906 343.297 72.2109 344.266 73.0547C345.25 73.8828 346.445 74.2969 347.852 74.2969C349.258 74.2969 350.445 73.8828 351.414 73.0547C352.398 72.2109 352.891 70.8906 352.891 69.0938V61.125C352.891 59.3281 352.398 58.0156 351.414 57.1875C350.445 56.3438 349.258 55.9219 347.852 55.9219C346.445 55.9219 345.25 56.3438 344.266 57.1875C343.297 58.0156 342.812 59.3281 342.812 61.125V69.0938Z" fill="white"/>
<path d="M364.609 78.9375V61.125C364.609 58.5469 365.578 56.3047 367.516 54.3984C369.328 52.6328 371.602 51.75 374.336 51.75C376.82 51.75 378.969 52.6562 380.781 54.4688C381.125 54.8125 381.438 55.2188 381.719 55.6875C382 55.2344 382.312 54.8359 382.656 54.4922C384.609 52.6641 386.758 51.75 389.102 51.75C391.805 51.75 394.078 52.6328 395.922 54.3984C397.859 56.2734 398.828 58.5156 398.828 61.125V76.8281L394.375 78.9375H394.141V61.125C394.141 59.3281 393.648 58.0156 392.664 57.1875C391.695 56.3438 390.508 55.9219 389.102 55.9219C387.695 55.9219 386.5 56.3438 385.516 57.1875C384.547 58.0156 384.062 59.3281 384.062 61.125V76.8281L379.609 78.9375H379.375V61.125C379.375 59.3281 378.883 58.0156 377.898 57.1875C376.93 56.3438 375.742 55.9219 374.336 55.9219C372.93 55.9219 371.734 56.3438 370.75 57.1875C369.781 58.0156 369.297 59.3281 369.297 61.125V76.8281L364.844 78.9375H364.609Z" fill="white"/>
<path d="M425.312 51.2812V69.0938C425.312 71.6719 424.344 73.9141 422.406 75.8203C420.594 77.5859 418.32 78.4688 415.586 78.4688C412.883 78.4688 410.609 77.5859 408.766 75.8203C406.828 73.9453 405.859 71.7031 405.859 69.0938V53.3906L410.312 51.2812H410.547V69.0938C410.547 70.8906 411.031 72.2109 412 73.0547C412.984 73.8828 414.18 74.2969 415.586 74.2969C416.992 74.2969 418.18 73.8828 419.148 73.0547C420.133 72.2109 420.625 70.8906 420.625 69.0938V53.3906L425.078 51.2812H425.312Z" fill="white"/>
<path d="M432.344 78.9375V61.125C432.344 58.5469 433.312 56.3047 435.25 54.3984C437.062 52.6328 439.336 51.75 442.07 51.75C444.773 51.75 447.047 52.6328 448.891 54.3984C450.828 56.2734 451.797 58.5156 451.797 61.125V76.8281L447.344 78.9375H447.109V61.125C447.109 59.3281 446.617 58.0156 445.633 57.1875C444.664 56.3438 443.477 55.9219 442.07 55.9219C440.664 55.9219 439.469 56.3438 438.484 57.1875C437.516 58.0156 437.031 59.3281 437.031 61.125V76.8281L432.578 78.9375H432.344Z" fill="white"/>
<path d="M476.641 76.8281L472.188 78.9375H471.953V76.4766C470.703 77.8047 469.023 78.4688 466.914 78.4688C463.992 78.4688 461.719 77.5859 460.094 75.8203C458.469 74.0547 457.656 71.9688 457.656 69.5625C457.656 67.0625 458.539 64.9375 460.305 63.1875C462.008 61.5 464.211 60.6562 466.914 60.6562C468.836 60.6562 470.516 61.3203 471.953 62.6484C471.953 59.8828 471.469 58.0625 470.5 57.1875C469.562 56.3438 468.367 55.9219 466.914 55.9219H461.219V55.6875L463.094 51.75H466.914C469.648 51.75 471.922 52.6328 473.734 54.3984C475.672 56.2891 476.641 58.5312 476.641 61.125V76.8281ZM462.25 69.5625C462.25 70.9531 462.672 72.1016 463.516 73.0078C464.328 73.8828 465.469 74.3203 466.938 74.3203C468.469 74.3203 469.656 73.875 470.5 72.9844C471.438 71.9844 471.906 70.8594 471.906 69.6094C471.906 68.2031 471.422 67.0625 470.453 66.1875C469.484 65.3125 468.32 64.875 466.961 64.875C465.539 64.875 464.398 65.3359 463.539 66.2578C462.68 67.1797 462.25 68.2812 462.25 69.5625Z" fill="white"/>
<path d="M484.844 78.9375V43.7812L489.297 41.6719H489.531V76.8281L485.078 78.9375H484.844Z" fill="white"/>
<path d="M521.172 69.0938C521.172 70.8906 521.656 72.2109 522.625 73.0547C523.609 73.8828 524.805 74.2969 526.211 74.2969C527.617 74.2969 528.805 73.8828 529.773 73.0547C530.758 72.2109 531.25 70.8906 531.25 69.0938V61.125C531.25 59.3281 530.758 58.0156 529.773 57.1875C528.805 56.3438 527.617 55.9219 526.211 55.9219C524.805 55.9219 523.609 56.3438 522.625 57.1875C521.656 58.0156 521.172 59.3281 521.172 61.125V69.0938ZM516.484 69.0938V61.125C516.484 58.5469 517.453 56.3047 519.391 54.3984C521.203 52.6328 523.477 51.75 526.211 51.75C528.273 51.75 529.953 52.4141 531.25 53.7422V43.7812L535.703 41.6719H535.938V69.0938C535.938 71.6719 534.969 73.9141 533.031 75.8203C531.219 77.5859 528.945 78.4688 526.211 78.4688C523.508 78.4688 521.234 77.5859 519.391 75.8203C517.453 73.9453 516.484 71.7031 516.484 69.0938Z" fill="white"/>
<path d="M563.594 67.6172V69.0938C563.594 71.6719 562.625 73.9141 560.688 75.8203C558.875 77.5859 556.602 78.4688 553.867 78.4688C551.164 78.4688 548.891 77.5859 547.047 75.8203C545.109 73.9453 544.141 71.7031 544.141 69.0938V61.125C544.141 58.5469 545.109 56.3047 547.047 54.3984C548.859 52.6328 551.133 51.75 553.867 51.75C556.523 51.75 558.797 52.6328 560.688 54.3984C562.625 56.2109 563.594 58.2266 563.594 60.4453V60.4922L549.297 71.6953C549.531 72.2266 549.859 72.6719 550.281 73.0312C551.266 73.875 552.461 74.2969 553.867 74.2969C555.273 74.2969 556.461 73.875 557.43 73.0312C558.414 72.1875 558.906 71.0859 558.906 69.7266L563.359 67.6172H563.594ZM548.828 66.9609L558.625 59.0156C558.375 58.25 557.984 57.6406 557.453 57.1875C556.469 56.3438 555.273 55.9219 553.867 55.9219C552.461 55.9219 551.266 56.3438 550.281 57.1875C549.312 58.0156 548.828 59.3281 548.828 61.125V66.9609Z" fill="white"/>
<path d="M590.547 78.9375V43.7812L595 41.6719H595.234V76.8281L590.781 78.9375H590.547Z" fill="white"/>
<path d="M621.25 76.8281L616.797 78.9375H616.562V76.4766C615.312 77.8047 613.633 78.4688 611.523 78.4688C608.602 78.4688 606.328 77.5859 604.703 75.8203C603.078 74.0547 602.266 71.9688 602.266 69.5625C602.266 67.0625 603.148 64.9375 604.914 63.1875C606.617 61.5 608.82 60.6562 611.523 60.6562C613.445 60.6562 615.125 61.3203 616.562 62.6484C616.562 59.8828 616.078 58.0625 615.109 57.1875C614.172 56.3438 612.977 55.9219 611.523 55.9219H605.828V55.6875L607.703 51.75H611.523C614.258 51.75 616.531 52.6328 618.344 54.3984C620.281 56.2891 621.25 58.5312 621.25 61.125V76.8281ZM606.859 69.5625C606.859 70.9531 607.281 72.1016 608.125 73.0078C608.938 73.8828 610.078 74.3203 611.547 74.3203C613.078 74.3203 614.266 73.875 615.109 72.9844C616.047 71.9844 616.516 70.8594 616.516 69.6094C616.516 68.2031 616.031 67.0625 615.062 66.1875C614.094 65.3125 612.93 64.875 611.57 64.875C610.148 64.875 609.008 65.3359 608.148 66.2578C607.289 67.1797 606.859 68.2812 606.859 69.5625Z" fill="white"/>
<path d="M645.391 67.2188L649.844 65.1094H650.078V66.75C650.078 68.8438 650.641 70.5391 651.766 71.8359C653.156 73.4453 654.977 74.25 657.227 74.25C659.477 74.25 661.297 73.4453 662.688 71.8359C663.812 70.5391 664.375 68.8438 664.375 66.75V46.875H650.945V46.6406L652.844 42.6094H669.062V66.75C669.062 70.125 668.008 72.8984 665.898 75.0703C663.68 77.3359 660.789 78.4688 657.227 78.4688C653.711 78.4688 650.82 77.3359 648.555 75.0703C646.445 72.9766 645.391 70.3594 645.391 67.2188Z" fill="white"/>
<path d="M696.719 51.2812V69.0938C696.719 71.6719 695.75 73.9141 693.812 75.8203C692 77.5859 689.727 78.4688 686.992 78.4688C684.289 78.4688 682.016 77.5859 680.172 75.8203C678.234 73.9453 677.266 71.7031 677.266 69.0938V53.3906L681.719 51.2812H681.953V69.0938C681.953 70.8906 682.438 72.2109 683.406 73.0547C684.391 73.8828 685.586 74.2969 686.992 74.2969C688.398 74.2969 689.586 73.8828 690.555 73.0547C691.539 72.2109 692.031 70.8906 692.031 69.0938V53.3906L696.484 51.2812H696.719Z" fill="white"/>
<path d="M709.281 78.9375L700.234 53.2031L704.289 51.2812H704.523L711.156 70.8281L717.648 51.2812H717.883L721.938 53.2031L713.57 77.0156L709.516 78.9375H709.281Z" fill="white"/>
<path d="M744.906 67.6172V69.0938C744.906 71.6719 743.938 73.9141 742 75.8203C740.188 77.5859 737.914 78.4688 735.18 78.4688C732.477 78.4688 730.203 77.5859 728.359 75.8203C726.422 73.9453 725.453 71.7031 725.453 69.0938V61.125C725.453 58.5469 726.422 56.3047 728.359 54.3984C730.172 52.6328 732.445 51.75 735.18 51.75C737.836 51.75 740.109 52.6328 742 54.3984C743.938 56.2109 744.906 58.2266 744.906 60.4453V60.4922L730.609 71.6953C730.844 72.2266 731.172 72.6719 731.594 73.0312C732.578 73.875 733.773 74.2969 735.18 74.2969C736.586 74.2969 737.773 73.875 738.742 73.0312C739.727 72.1875 740.219 71.0859 740.219 69.7266L744.672 67.6172H744.906ZM730.141 66.9609L739.938 59.0156C739.688 58.25 739.297 57.6406 738.766 57.1875C737.781 56.3438 736.586 55.9219 735.18 55.9219C733.773 55.9219 732.578 56.3438 731.594 57.1875C730.625 58.0156 730.141 59.3281 730.141 61.125V66.9609Z" fill="white"/>
<path d="M751.938 78.9375V61.125C751.938 58.5469 752.906 56.3047 754.844 54.3984C756.656 52.6328 758.93 51.75 761.664 51.75C764.367 51.75 766.641 52.6328 768.484 54.3984C770.422 56.2734 771.391 58.5156 771.391 61.125V76.8281L766.938 78.9375H766.703V61.125C766.703 59.3281 766.211 58.0156 765.227 57.1875C764.258 56.3438 763.07 55.9219 761.664 55.9219C760.258 55.9219 759.062 56.3438 758.078 57.1875C757.109 58.0156 756.625 59.3281 756.625 61.125V76.8281L752.172 78.9375H751.938Z" fill="white"/>
<path d="M781.516 78.9375V56.4844H775.492V56.25L777.391 52.2188H781.516V43.7812L785.969 41.6719H786.203V52.2188H792.227V52.4531L790.328 56.4844H786.203V76.8281L781.75 78.9375H781.516Z" fill="white"/>
<path d="M815.781 51.2812V69.0938C815.781 71.6719 814.812 73.9141 812.875 75.8203C811.062 77.5859 808.789 78.4688 806.055 78.4688C803.352 78.4688 801.078 77.5859 799.234 75.8203C797.297 73.9453 796.328 71.7031 796.328 69.0938V53.3906L800.781 51.2812H801.016V69.0938C801.016 70.8906 801.5 72.2109 802.469 73.0547C803.453 73.8828 804.648 74.2969 806.055 74.2969C807.461 74.2969 808.648 73.8828 809.617 73.0547C810.602 72.2109 811.094 70.8906 811.094 69.0938V53.3906L815.547 51.2812H815.781Z" fill="white"/>
<path d="M827.5 69.0938C827.5 70.8906 827.984 72.2109 828.953 73.0547C829.938 73.8828 831.133 74.2969 832.539 74.2969C833.945 74.2969 835.133 73.8828 836.102 73.0547C837.086 72.2109 837.578 70.8906 837.578 69.0938V61.125C837.578 59.3281 837.086 58.0156 836.102 57.1875C835.133 56.3438 833.945 55.9219 832.539 55.9219C831.133 55.9219 829.938 56.3438 828.953 57.1875C827.984 58.0156 827.5 59.3281 827.5 61.125V69.0938ZM822.812 69.0938V61.125C822.812 58.5469 823.781 56.3047 825.719 54.3984C827.531 52.6328 829.805 51.75 832.539 51.75C834.602 51.75 836.281 52.4141 837.578 53.7422V43.7812L842.031 41.6719H842.266V69.0938C842.266 71.6719 841.297 73.9141 839.359 75.8203C837.547 77.5859 835.273 78.4688 832.539 78.4688C829.836 78.4688 827.562 77.5859 825.719 75.8203C823.781 73.9453 822.812 71.7031 822.812 69.0938Z" fill="white"/>
<path d="M203.359 116.172V124.75C203.359 128.141 202.305 130.914 200.195 133.07C197.977 135.336 195.086 136.469 191.523 136.469C187.961 136.469 185.07 135.336 182.852 133.07C180.742 130.914 179.688 128.141 179.688 124.75V111.859C179.688 108.469 180.742 105.695 182.852 103.539C185.07 101.273 187.961 100.141 191.523 100.141C195.211 100.141 198.102 101.273 200.195 103.539C202.305 105.805 203.359 108.422 203.359 111.391L198.906 113.5H198.672V111.859C198.672 109.766 198.109 108.07 196.984 106.773C195.594 105.164 193.773 104.359 191.523 104.359C189.273 104.359 187.453 105.164 186.062 106.773C184.938 108.07 184.375 109.766 184.375 111.859V124.75C184.375 126.844 184.938 128.539 186.062 129.836C187.453 131.445 189.273 132.25 191.523 132.25C193.773 132.25 195.594 131.445 196.984 129.836C198.109 128.539 198.672 127 198.672 125.219V120.438H190.516V120.203L192.414 116.172H203.359Z" fill="white"/>
<path d="M231.016 109.281V127.094C231.016 129.672 230.047 131.914 228.109 133.82C226.297 135.586 224.023 136.469 221.289 136.469C218.586 136.469 216.312 135.586 214.469 133.82C212.531 131.945 211.562 129.703 211.562 127.094V111.391L216.016 109.281H216.25V127.094C216.25 128.891 216.734 130.211 217.703 131.055C218.688 131.883 219.883 132.297 221.289 132.297C222.695 132.297 223.883 131.883 224.852 131.055C225.836 130.211 226.328 128.891 226.328 127.094V111.391L230.781 109.281H231.016Z" fill="white"/>
<path d="M239.57 105.039C239.023 104.477 238.75 103.805 238.75 103.023C238.75 102.227 239.023 101.547 239.57 100.984C240.117 100.422 240.781 100.141 241.562 100.141C242.344 100.141 243.008 100.422 243.555 100.984C244.102 101.547 244.375 102.227 244.375 103.023C244.375 103.805 244.102 104.477 243.555 105.039C243.008 105.602 242.344 105.883 241.562 105.883C240.781 105.883 240.117 105.602 239.57 105.039ZM239.219 136.938V111.391L243.672 109.281H243.906V134.828L239.453 136.938H239.219Z" fill="white"/>
<path d="M253.281 136.938V101.781L257.734 99.6719H257.969V134.828L253.516 136.938H253.281Z" fill="white"/>
<path d="M267.344 136.938V101.781L271.797 99.6719H272.031V134.828L267.578 136.938H267.344Z" fill="white"/>
<path d="M299.688 125.617V127.094C299.688 129.672 298.719 131.914 296.781 133.82C294.969 135.586 292.695 136.469 289.961 136.469C287.258 136.469 284.984 135.586 283.141 133.82C281.203 131.945 280.234 129.703 280.234 127.094V119.125C280.234 116.547 281.203 114.305 283.141 112.398C284.953 110.633 287.227 109.75 289.961 109.75C292.617 109.75 294.891 110.633 296.781 112.398C298.719 114.211 299.688 116.227 299.688 118.445V118.492L285.391 129.695C285.625 130.227 285.953 130.672 286.375 131.031C287.359 131.875 288.555 132.297 289.961 132.297C291.367 132.297 292.555 131.875 293.523 131.031C294.508 130.188 295 129.086 295 127.727L299.453 125.617H299.688ZM284.922 124.961L294.719 117.016C294.469 116.25 294.078 115.641 293.547 115.188C292.562 114.344 291.367 113.922 289.961 113.922C288.555 113.922 287.359 114.344 286.375 115.188C285.406 116.016 284.922 117.328 284.922 119.125V124.961Z" fill="white"/>
<path d="M306.719 136.938V119.125C306.719 116.547 307.688 114.305 309.625 112.398C311.438 110.633 313.711 109.75 316.445 109.75H319.609V109.984L317.734 113.922H316.445C315.039 113.922 313.844 114.344 312.859 115.188C311.891 116.016 311.406 117.328 311.406 119.125C311.406 119.125 311.406 124.359 311.406 134.828L306.953 136.938H306.719Z" fill="white"/>
<path d="M323.594 136.938V119.125C323.594 116.547 324.562 114.305 326.5 112.398C328.312 110.633 330.586 109.75 333.32 109.75C335.805 109.75 337.953 110.656 339.766 112.469C340.109 112.812 340.422 113.219 340.703 113.688C340.984 113.234 341.297 112.836 341.641 112.492C343.594 110.664 345.742 109.75 348.086 109.75C350.789 109.75 353.062 110.633 354.906 112.398C356.844 114.273 357.812 116.516 357.812 119.125V134.828L353.359 136.938H353.125V119.125C353.125 117.328 352.633 116.016 351.648 115.188C350.68 114.344 349.492 113.922 348.086 113.922C346.68 113.922 345.484 114.344 344.5 115.188C343.531 116.016 343.047 117.328 343.047 119.125V134.828L338.594 136.938H338.359V119.125C338.359 117.328 337.867 116.016 336.883 115.188C335.914 114.344 334.727 113.922 333.32 113.922C331.914 113.922 330.719 114.344 329.734 115.188C328.766 116.016 328.281 117.328 328.281 119.125V134.828L323.828 136.938H323.594Z" fill="white"/>
<path d="M364.844 127.094V119.125C364.844 116.547 365.812 114.305 367.75 112.398C369.562 110.633 371.836 109.75 374.57 109.75C377.273 109.75 379.547 110.633 381.391 112.398C383.328 114.273 384.297 116.516 384.297 119.125V127.094C384.297 129.672 383.328 131.914 381.391 133.82C379.578 135.586 377.305 136.469 374.57 136.469C371.867 136.469 369.594 135.586 367.75 133.82C365.812 131.945 364.844 129.703 364.844 127.094ZM369.531 127.094C369.531 128.891 370.016 130.211 370.984 131.055C371.969 131.883 373.164 132.297 374.57 132.297C375.977 132.297 377.164 131.883 378.133 131.055C379.117 130.211 379.609 128.891 379.609 127.094V119.125C379.609 117.328 379.117 116.016 378.133 115.188C377.164 114.344 375.977 113.922 374.57 113.922C373.164 113.922 371.969 114.344 370.984 115.188C370.016 116.016 369.531 117.328 369.531 119.125V127.094Z" fill="white"/>
<path d="M415.938 131.781H422.617C424.977 131.781 426.852 131.039 428.242 129.555C429.258 128.477 429.766 127.055 429.766 125.289C429.766 123.461 429.227 121.922 428.148 120.672C426.977 119.234 425.133 118.516 422.617 118.516H415.938V131.781ZM415.938 114.297H422.617C424.18 114.297 425.438 113.789 426.391 112.773C427.234 111.867 427.656 110.688 427.656 109.234C427.656 108.047 427.148 106.977 426.133 106.023C425.227 105.227 424.055 104.828 422.617 104.828H415.938V114.297ZM411.25 136V101.781L413.734 100.609H422.617C425.258 100.609 427.453 101.328 429.203 102.766C431.281 104.453 432.32 106.617 432.32 109.258C432.32 111.945 431.133 114.18 428.758 115.961C429.523 116.289 430.281 116.781 431.031 117.438C433.312 119.516 434.453 122.094 434.453 125.172C434.453 128.266 433.453 130.805 431.453 132.789C429.312 134.93 426.367 136 422.617 136H411.25Z" fill="white"/>
<path d="M460 134.828L455.547 136.938H455.312V134.477C454.062 135.805 452.383 136.469 450.273 136.469C447.352 136.469 445.078 135.586 443.453 133.82C441.828 132.055 441.016 129.969 441.016 127.562C441.016 125.062 441.898 122.938 443.664 121.188C445.367 119.5 447.57 118.656 450.273 118.656C452.195 118.656 453.875 119.32 455.312 120.648C455.312 117.883 454.828 116.062 453.859 115.188C452.922 114.344 451.727 113.922 450.273 113.922H444.578V113.688L446.453 109.75H450.273C453.008 109.75 455.281 110.633 457.094 112.398C459.031 114.289 460 116.531 460 119.125V134.828ZM445.609 127.562C445.609 128.953 446.031 130.102 446.875 131.008C447.688 131.883 448.828 132.32 450.297 132.32C451.828 132.32 453.016 131.875 453.859 130.984C454.797 129.984 455.266 128.859 455.266 127.609C455.266 126.203 454.781 125.062 453.812 124.188C452.844 123.312 451.68 122.875 450.32 122.875C448.898 122.875 447.758 123.336 446.898 124.258C446.039 125.18 445.609 126.281 445.609 127.562Z" fill="white"/>
<path d="M486.484 125.617V127.094C486.484 129.672 485.516 131.914 483.578 133.82C481.766 135.586 479.492 136.469 476.758 136.469C474.055 136.469 471.781 135.586 469.938 133.82C468 131.945 467.031 129.703 467.031 127.094V119.125C467.031 116.531 468 114.289 469.938 112.398C471.75 110.633 474.023 109.75 476.758 109.75C479.43 109.75 481.703 110.633 483.578 112.398C485.516 114.227 486.484 116.242 486.484 118.445V118.492L482.031 120.602H481.797V119.125C481.797 117.328 481.305 116.016 480.32 115.188C479.352 114.344 478.164 113.922 476.758 113.922C475.352 113.922 474.156 114.344 473.172 115.188C472.203 116.016 471.719 117.328 471.719 119.125V127.094C471.719 128.891 472.203 130.211 473.172 131.055C474.156 131.883 475.352 132.297 476.758 132.297C478.164 132.297 479.352 131.875 480.32 131.031C481.305 130.188 481.797 129.086 481.797 127.727L486.25 125.617H486.484Z" fill="white"/>
<path d="M511.328 134.828L506.875 136.938H506.641V134.477C505.391 135.805 503.711 136.469 501.602 136.469C498.68 136.469 496.406 135.586 494.781 133.82C493.156 132.055 492.344 129.969 492.344 127.562C492.344 125.062 493.227 122.938 494.992 121.188C496.695 119.5 498.898 118.656 501.602 118.656C503.523 118.656 505.203 119.32 506.641 120.648C506.641 117.883 506.156 116.062 505.188 115.188C504.25 114.344 503.055 113.922 501.602 113.922H495.906V113.688L497.781 109.75H501.602C504.336 109.75 506.609 110.633 508.422 112.398C510.359 114.289 511.328 116.531 511.328 119.125V134.828ZM496.938 127.562C496.938 128.953 497.359 130.102 498.203 131.008C499.016 131.883 500.156 132.32 501.625 132.32C503.156 132.32 504.344 131.875 505.188 130.984C506.125 129.984 506.594 128.859 506.594 127.609C506.594 126.203 506.109 125.062 505.141 124.188C504.172 123.312 503.008 122.875 501.648 122.875C500.227 122.875 499.086 123.336 498.227 124.258C497.367 125.18 496.938 126.281 496.938 127.562Z" fill="white"/>
<path d="M538.281 136.938V111.859C538.281 108.484 539.336 105.711 541.445 103.539C543.664 101.273 546.555 100.141 550.117 100.141C553.617 100.141 556.508 101.273 558.789 103.539C560.898 105.633 561.953 108.406 561.953 111.859V134.828L557.5 136.938H557.266V120.438H542.969V134.828L538.516 136.938H538.281ZM542.969 116.172H557.266V111.859C557.266 109.766 556.703 108.07 555.578 106.773C554.188 105.164 552.367 104.359 550.117 104.359C547.867 104.359 546.047 105.164 544.656 106.773C543.531 108.07 542.969 109.766 542.969 111.859V116.172Z" fill="white"/>
<path d="M574.844 127.094C574.844 128.891 575.328 130.211 576.297 131.055C577.281 131.883 578.477 132.297 579.883 132.297C581.289 132.297 582.477 131.883 583.445 131.055C584.43 130.211 584.922 128.891 584.922 127.094V119.125C584.922 117.328 584.43 116.016 583.445 115.188C582.477 114.344 581.289 113.922 579.883 113.922C578.477 113.922 577.281 114.344 576.297 115.188C575.328 116.016 574.844 117.328 574.844 119.125V127.094ZM570.156 127.094V119.125C570.156 116.547 571.125 114.305 573.062 112.398C574.875 110.633 577.148 109.75 579.883 109.75C582.617 109.75 584.891 110.633 586.703 112.398C588.641 114.289 589.609 116.531 589.609 119.125V136.703C589.609 139.281 588.641 141.523 586.703 143.43C584.891 145.195 582.617 146.078 579.883 146.078H572.664V145.844L574.539 141.906H579.883C581.289 141.906 582.477 141.484 583.445 140.641C584.43 139.812 584.922 138.5 584.922 136.703V134.477C583.734 135.805 582.055 136.469 579.883 136.469C577.18 136.469 574.906 135.586 573.062 133.82C571.125 131.945 570.156 129.703 570.156 127.094Z" fill="white"/>
<path d="M616.797 109.281V127.094C616.797 129.672 615.828 131.914 613.891 133.82C612.078 135.586 609.805 136.469 607.07 136.469C604.367 136.469 602.094 135.586 600.25 133.82C598.312 131.945 597.344 129.703 597.344 127.094V111.391L601.797 109.281H602.031V127.094C602.031 128.891 602.516 130.211 603.484 131.055C604.469 131.883 605.664 132.297 607.07 132.297C608.477 132.297 609.664 131.883 610.633 131.055C611.617 130.211 612.109 128.891 612.109 127.094V111.391L616.562 109.281H616.797Z" fill="white"/>
<path d="M625.352 105.039C624.805 104.477 624.531 103.805 624.531 103.023C624.531 102.227 624.805 101.547 625.352 100.984C625.898 100.422 626.562 100.141 627.344 100.141C628.125 100.141 628.789 100.422 629.336 100.984C629.883 101.547 630.156 102.227 630.156 103.023C630.156 103.805 629.883 104.477 629.336 105.039C628.789 105.602 628.125 105.883 627.344 105.883C626.562 105.883 625.898 105.602 625.352 105.039ZM625 136.938V111.391L629.453 109.281H629.688V134.828L625.234 136.938H625Z" fill="white"/>
<path d="M637.891 136.938V119.125C637.891 116.547 638.859 114.305 640.797 112.398C642.609 110.633 644.883 109.75 647.617 109.75C650.32 109.75 652.594 110.633 654.438 112.398C656.375 114.273 657.344 116.516 657.344 119.125V134.828L652.891 136.938H652.656V119.125C652.656 117.328 652.164 116.016 651.18 115.188C650.211 114.344 649.023 113.922 647.617 113.922C646.211 113.922 645.016 114.344 644.031 115.188C643.062 116.016 642.578 117.328 642.578 119.125V134.828L638.125 136.938H637.891Z" fill="white"/>
<path d="M682.188 134.828L677.734 136.938H677.5V134.477C676.25 135.805 674.57 136.469 672.461 136.469C669.539 136.469 667.266 135.586 665.641 133.82C664.016 132.055 663.203 129.969 663.203 127.562C663.203 125.062 664.086 122.938 665.852 121.188C667.555 119.5 669.758 118.656 672.461 118.656C674.383 118.656 676.062 119.32 677.5 120.648C677.5 117.883 677.016 116.062 676.047 115.188C675.109 114.344 673.914 113.922 672.461 113.922H666.766V113.688L668.641 109.75H672.461C675.195 109.75 677.469 110.633 679.281 112.398C681.219 114.289 682.188 116.531 682.188 119.125V134.828ZM667.797 127.562C667.797 128.953 668.219 130.102 669.062 131.008C669.875 131.883 671.016 132.32 672.484 132.32C674.016 132.32 675.203 131.875 676.047 130.984C676.984 129.984 677.453 128.859 677.453 127.609C677.453 126.203 676.969 125.062 676 124.188C675.031 123.312 673.867 122.875 672.508 122.875C671.086 122.875 669.945 123.336 669.086 124.258C668.227 125.18 667.797 126.281 667.797 127.562Z" fill="white"/>
<path d="M693.906 127.094C693.906 128.891 694.391 130.211 695.359 131.055C696.344 131.883 697.539 132.297 698.945 132.297C700.352 132.297 701.539 131.883 702.508 131.055C703.492 130.211 703.984 128.891 703.984 127.094V119.125C703.984 117.328 703.492 116.016 702.508 115.188C701.539 114.344 700.352 113.922 698.945 113.922C697.539 113.922 696.344 114.344 695.359 115.188C694.391 116.016 693.906 117.328 693.906 119.125V127.094ZM689.219 127.094V119.125C689.219 116.547 690.188 114.305 692.125 112.398C693.938 110.633 696.211 109.75 698.945 109.75C701.68 109.75 703.953 110.633 705.766 112.398C707.703 114.289 708.672 116.531 708.672 119.125V136.703C708.672 139.281 707.703 141.523 705.766 143.43C703.953 145.195 701.68 146.078 698.945 146.078H691.727V145.844L693.602 141.906H698.945C700.352 141.906 701.539 141.484 702.508 140.641C703.492 139.812 703.984 138.5 703.984 136.703V134.477C702.797 135.805 701.117 136.469 698.945 136.469C696.242 136.469 693.969 135.586 692.125 133.82C690.188 131.945 689.219 129.703 689.219 127.094Z" fill="white"/>
<path d="M734.219 134.828L729.766 136.938H729.531V134.477C728.281 135.805 726.602 136.469 724.492 136.469C721.57 136.469 719.297 135.586 717.672 133.82C716.047 132.055 715.234 129.969 715.234 127.562C715.234 125.062 716.117 122.938 717.883 121.188C719.586 119.5 721.789 118.656 724.492 118.656C726.414 118.656 728.094 119.32 729.531 120.648C729.531 117.883 729.047 116.062 728.078 115.188C727.141 114.344 725.945 113.922 724.492 113.922H718.797V113.688L720.672 109.75H724.492C727.227 109.75 729.5 110.633 731.312 112.398C733.25 114.289 734.219 116.531 734.219 119.125V134.828ZM719.828 127.562C719.828 128.953 720.25 130.102 721.094 131.008C721.906 131.883 723.047 132.32 724.516 132.32C726.047 132.32 727.234 131.875 728.078 130.984C729.016 129.984 729.484 128.859 729.484 127.609C729.484 126.203 729 125.062 728.031 124.188C727.062 123.312 725.898 122.875 724.539 122.875C723.117 122.875 721.977 123.336 721.117 124.258C720.258 125.18 719.828 126.281 719.828 127.562Z" fill="white"/>
<path fill-rule="evenodd" clip-rule="evenodd" d="M154 18V161.252H149V18H154Z" fill="white"/>
</svg>
