<svg width="128" height="128" viewBox="0 0 128 128" fill="none" xmlns="http://www.w3.org/2000/svg">
<g clip-path="url(#clip0_388_5)">
<path d="M127.68 0.320068H0.320007V127.68H127.68V0.320068Z" stroke="white" stroke-width="3"/>
<path d="M41.3246 45.5845V47.0866C41.3246 50.1908 40.359 52.7301 38.4277 54.7043C36.3964 56.7786 33.7498 57.8158 30.4881 57.8158C27.2265 57.8158 24.5798 56.7786 22.5485 54.7043C20.6173 52.7301 19.6517 50.1908 19.6517 47.0866V35.2844C19.6517 32.1802 20.6173 29.6409 22.5485 27.6667C24.5798 25.5924 27.2265 24.5554 30.4881 24.5554C33.8643 24.5554 36.5107 25.5924 38.4277 27.6667C40.359 29.7411 41.3246 32.1373 41.3246 34.8554L37.2476 36.7867H37.033V35.2844C37.033 33.3676 36.518 31.8154 35.488 30.628C34.2148 29.1545 32.5481 28.4178 30.4881 28.4178C28.4282 28.4178 26.7616 29.1545 25.4884 30.628C24.4582 31.8154 23.9433 33.3676 23.9433 35.2844V47.0866C23.9433 49.0034 24.4582 50.5556 25.4884 51.743C26.7616 53.2165 28.4282 53.9532 30.4881 53.9532C32.5481 53.9532 34.2148 53.2165 35.488 51.743C36.518 50.5556 37.033 49.1466 37.033 47.5156L41.11 45.5845H41.3246ZM71.5808 45.5845V47.0866C71.5808 50.1908 70.6152 52.7301 68.6839 54.7043C66.6526 56.7786 64.006 57.8158 60.7443 57.8158C57.4827 57.8158 54.8363 56.7786 52.8047 54.7043C50.8736 52.7301 49.9078 50.1908 49.9078 47.0866V35.2844C49.9078 32.1802 50.8736 29.6409 52.8047 27.6667C54.8363 25.5924 57.4827 24.5554 60.7443 24.5554C64.1205 24.5554 66.7669 25.5924 68.6839 27.6667C70.6152 29.7411 71.5808 32.1373 71.5808 34.8554L67.5038 36.7867H67.2892V35.2844C67.2892 33.3676 66.7742 31.8154 65.7442 30.628C64.471 29.1545 62.8045 28.4178 60.7443 28.4178C58.6844 28.4178 57.0178 29.1545 55.7446 30.628C54.7147 31.8154 54.1997 33.3676 54.1997 35.2844V47.0866C54.1997 49.0034 54.7147 50.5556 55.7446 51.743C57.0178 53.2165 58.6844 53.9532 60.7443 53.9532C62.8045 53.9532 64.471 53.2165 65.7442 51.743C66.7742 50.5556 67.2892 49.1466 67.2892 47.5156L71.3662 45.5845H71.5808ZM77.5891 47.5156L81.6663 45.5845H81.8807V47.0866C81.8807 49.0034 82.3957 50.5556 83.4259 51.743C84.6991 53.2165 86.3657 53.9532 88.4256 53.9532C90.4855 53.9532 92.1523 53.2165 93.4255 51.743C94.4555 50.5556 94.9705 49.0034 94.9705 47.0866V28.8899H82.6748V28.6753L84.413 24.9844H99.2621V47.0866C99.2621 50.1765 98.2965 52.7158 96.3652 54.7043C94.3339 56.7786 91.6872 57.8158 88.4256 57.8158C85.2068 57.8158 82.5604 56.7786 80.486 54.7043C78.5549 52.7873 77.5891 50.3912 77.5891 47.5156ZM41.3246 83.8194V91.6733C41.3246 94.7775 40.359 97.3168 38.4277 99.291C36.3964 101.365 33.7498 102.402 30.4881 102.402C27.2265 102.402 24.5798 101.365 22.5485 99.291C20.6173 97.3168 19.6517 94.7775 19.6517 91.6733V79.871C19.6517 76.7668 20.6173 74.2275 22.5485 72.2533C24.5798 70.1791 27.2265 69.1421 30.4881 69.1421C33.8643 69.1421 36.5107 70.1791 38.4277 72.2533C40.359 74.3278 41.3246 76.724 41.3246 79.442L37.2476 81.3733H37.033V79.871C37.033 77.9542 36.518 76.402 35.488 75.2146C34.2148 73.7411 32.5481 73.0045 30.4881 73.0045C28.4282 73.0045 26.7616 73.7411 25.4884 75.2146C24.4582 76.402 23.9433 77.9542 23.9433 79.871V91.6733C23.9433 93.5901 24.4582 95.1423 25.4884 96.3297C26.7616 97.8032 28.4282 98.5398 30.4881 98.5398C32.5481 98.5398 34.2148 97.8032 35.488 96.3297C36.518 95.1423 37.033 93.7332 37.033 92.1023V87.7249H29.5654V87.5103L31.3035 83.8194H41.3246ZM54.1997 98.1108H60.3153C62.4753 98.1108 64.192 97.4312 65.4652 96.0722C66.3951 95.0851 66.8599 93.7834 66.8599 92.1667C66.8599 90.4931 66.3665 89.0838 65.3794 87.9395C64.3066 86.6235 62.6185 85.9653 60.3153 85.9653H54.1997V98.1108ZM54.1997 82.1027H60.3153C61.7457 82.1027 62.8973 81.6379 63.77 80.708C64.5425 79.8783 64.9289 78.7982 64.9289 77.4678C64.9289 76.3807 64.4638 75.4006 63.5339 74.5281C62.7042 73.7985 61.6314 73.4337 60.3153 73.4337H54.1997V82.1027ZM49.9078 101.973V70.6442L52.1824 69.5711H60.3153C62.7328 69.5711 64.7428 70.2292 66.345 71.5453C68.2477 73.0902 69.1989 75.0717 69.1989 77.4892C69.1989 79.9498 68.1118 81.9954 65.9373 83.6264C66.6383 83.9267 67.3321 84.3775 68.0188 84.9782C70.1073 86.881 71.1516 89.2413 71.1516 92.0594C71.1516 94.8921 70.2362 97.2165 68.4049 99.0335C66.4452 100.993 63.7485 101.973 60.3153 101.973H49.9078ZM79.3058 102.831V79.871C79.3058 76.7811 80.2714 74.2418 82.2027 72.2533C84.234 70.1791 86.8806 69.1421 90.1423 69.1421C93.3468 69.1421 95.9932 70.1791 98.0819 72.2533C100.013 74.1704 100.979 76.7097 100.979 79.871V100.9L96.9018 102.831H96.6871V87.7249H83.5974V100.9L79.5204 102.831H79.3058ZM83.5974 83.8194H96.6871V79.871C96.6871 77.9542 96.1722 76.402 95.1422 75.2146C93.8688 73.7411 92.2022 73.0045 90.1423 73.0045C88.0823 73.0045 86.4158 73.7411 85.1424 75.2146C84.1124 76.402 83.5974 77.9542 83.5974 79.871V83.8194Z" fill="white"/>
<path d="M111.947 112.64V15.5732" stroke="white" stroke-width="3"/>
</g>
<defs>
<clipPath id="clip0_388_5">
<rect width="128" height="128" fill="white"/>
</clipPath>
</defs>
</svg>
