<svg width="316" height="61" viewBox="0 0 316 61" fill="none" xmlns="http://www.w3.org/2000/svg">
<path d="M18.3588 23.1978V24.0057C18.3588 25.6753 17.8405 27.0411 16.8039 28.1028C15.7136 29.2185 14.2931 29.7763 12.5424 29.7763C10.7917 29.7763 9.37127 29.2185 8.28096 28.1028C7.24434 27.0411 6.72607 25.6753 6.72607 24.0057V17.658C6.72607 15.9884 7.24434 14.6227 8.28096 13.5609C9.37127 12.4453 10.7917 11.8875 12.5424 11.8875C14.3545 11.8875 15.775 12.4453 16.8039 13.5609C17.8405 14.6766 18.3588 15.9654 18.3588 17.4272L16.1704 18.4659H16.0553V17.658C16.0553 16.627 15.7788 15.7922 15.226 15.1536C14.5426 14.3611 13.6481 13.9649 12.5424 13.9649C11.4367 13.9649 10.5422 14.3611 9.85884 15.1536C9.306 15.7922 9.02958 16.627 9.02958 17.658V24.0057C9.02958 25.0367 9.306 25.8715 9.85884 26.5101C10.5422 27.3026 11.4367 27.6989 12.5424 27.6989C13.6481 27.6989 14.5426 27.3026 15.226 26.5101C15.7788 25.8715 16.0553 25.1137 16.0553 24.2365L18.2436 23.1978H18.3588ZM34.5985 23.1978V24.0057C34.5985 25.6753 34.0802 27.0411 33.0436 28.1028C31.9533 29.2185 30.5328 29.7763 28.7821 29.7763C27.0315 29.7763 25.611 29.2185 24.5206 28.1028C23.4841 27.0411 22.9658 25.6753 22.9658 24.0057V17.658C22.9658 15.9884 23.4841 14.6227 24.5206 13.5609C25.611 12.4453 27.0315 11.8875 28.7821 11.8875C30.5942 11.8875 32.0147 12.4453 33.0436 13.5609C34.0802 14.6766 34.5985 15.9654 34.5985 17.4272L32.4101 18.4659H32.295V17.658C32.295 16.627 32.0185 15.7922 31.4657 15.1536C30.7823 14.3611 29.8878 13.9649 28.7821 13.9649C27.6765 13.9649 26.7819 14.3611 26.0985 15.1536C25.5457 15.7922 25.2693 16.627 25.2693 17.658V24.0057C25.2693 25.0367 25.5457 25.8715 26.0985 26.5101C26.7819 27.3026 27.6765 27.6989 28.7821 27.6989C29.8878 27.6989 30.7823 27.3026 31.4657 26.5101C32.0185 25.8715 32.295 25.1137 32.295 24.2365L34.4833 23.1978H34.5985ZM37.8234 24.2365L40.0115 23.1978H40.1269V24.0057C40.1269 25.0367 40.4033 25.8715 40.9561 26.5101C41.6394 27.3026 42.5339 27.6989 43.6396 27.6989C44.7453 27.6989 45.6398 27.3026 46.3235 26.5101C46.8763 25.8715 47.1527 25.0367 47.1527 24.0057V14.2188H40.5529V14.1034L41.4858 12.1183H49.4562V24.0057C49.4562 25.6676 48.9377 27.0333 47.9013 28.1028C46.8107 29.2185 45.3903 29.7763 43.6396 29.7763C41.9122 29.7763 40.4917 29.2185 39.3783 28.1028C38.3416 27.0718 37.8234 25.783 37.8234 24.2365ZM18.3588 44.1564V48.3807C18.3588 50.0504 17.8405 51.4161 16.8039 52.4779C15.7136 53.5936 14.2931 54.1513 12.5424 54.1513C10.7917 54.1513 9.37127 53.5936 8.28096 52.4779C7.24434 51.4161 6.72607 50.0504 6.72607 48.3807V42.0329C6.72607 40.3635 7.24434 38.9978 8.28096 37.936C9.37127 36.8203 10.7917 36.2624 12.5424 36.2624C14.3545 36.2624 15.775 36.8203 16.8039 37.936C17.8405 39.0517 18.3588 40.3403 18.3588 41.8024L16.1704 42.8409H16.0553V42.0329C16.0553 41.0021 15.7788 40.1671 15.226 39.5285C14.5426 38.736 13.6481 38.3397 12.5424 38.3397C11.4367 38.3397 10.5422 38.736 9.85884 39.5285C9.306 40.1671 9.02958 41.0021 9.02958 42.0329V48.3807C9.02958 49.4118 9.306 50.2465 9.85884 50.8851C10.5422 51.6776 11.4367 52.0739 12.5424 52.0739C13.6481 52.0739 14.5426 51.6776 15.226 50.8851C15.7788 50.2465 16.0553 49.4887 16.0553 48.6115V46.2571H12.0472V46.1419L12.9801 44.1564H18.3588ZM25.2693 51.8431H28.5518C29.7112 51.8431 30.6326 51.4774 31.316 50.7466C31.8151 50.2158 32.0646 49.5156 32.0646 48.6462C32.0646 47.7458 31.7997 46.988 31.2699 46.3723C30.694 45.6647 29.788 45.3109 28.5518 45.3109H25.2693V51.8431ZM25.2693 43.2331H28.5518C29.3196 43.2331 29.9377 42.9831 30.4061 42.4831C30.8207 42.0369 31.028 41.456 31.028 40.7402C31.028 40.1556 30.7785 39.6286 30.2794 39.1592C29.834 38.767 29.2582 38.5709 28.5518 38.5709H25.2693V43.2331ZM22.9658 53.9205V37.0703L24.1866 36.4933H28.5518C29.8494 36.4933 30.9282 36.8472 31.7882 37.5552C32.8094 38.3862 33.32 39.4517 33.32 40.7521C33.32 42.0753 32.7365 43.1755 31.5693 44.0527C31.9456 44.2144 32.318 44.4567 32.6866 44.7799C33.8076 45.8032 34.3681 47.0726 34.3681 48.5883C34.3681 50.1121 33.8767 51.3622 32.8939 52.3394C31.8419 53.3935 30.3946 53.9205 28.5518 53.9205H22.9658ZM38.7448 54.3821V42.0329C38.7448 40.3709 39.263 39.0056 40.2997 37.936C41.3899 36.8203 42.8104 36.2624 44.561 36.2624C46.2811 36.2624 47.7015 36.8203 48.8227 37.936C49.8591 38.9668 50.3776 40.3325 50.3776 42.0329V53.3436L48.1891 54.3821H48.0741V46.2571H41.0483V53.3436L38.8601 54.3821H38.7448ZM41.0483 44.1564H48.0741V42.0329C48.0741 41.0021 47.7977 40.1671 47.2449 39.5285C46.5612 38.736 45.6667 38.3397 44.561 38.3397C43.4553 38.3397 42.5608 38.736 41.8775 39.5285C41.3247 40.1671 41.0483 41.0021 41.0483 42.0329V44.1564Z" fill="#108938"/>
<path d="M74.9503 24.046V24.6519C74.9503 25.9041 74.5618 26.9284 73.7841 27.7248C72.9667 28.5615 71.9012 28.9799 70.588 28.9799C69.2752 28.9799 68.2097 28.5615 67.3922 27.7248C66.6145 26.9284 66.2261 25.9041 66.2261 24.6519V19.8912C66.2261 18.639 66.6145 17.6147 67.3922 16.8184C68.2097 15.9816 69.2752 15.5632 70.588 15.5632C71.9472 15.5632 73.0127 15.9816 73.7841 16.8184C74.5618 17.6551 74.9503 18.6217 74.9503 19.7181L73.3091 20.4971H73.2228V19.8912C73.2228 19.1179 73.0153 18.4918 72.6007 18.0128C72.0884 17.4185 71.4172 17.1213 70.588 17.1213C69.7587 17.1213 69.0879 17.4185 68.5753 18.0128C68.161 18.4918 67.9535 19.1179 67.9535 19.8912V24.6519C67.9535 25.4252 68.161 26.0513 68.5753 26.5302C69.0879 27.1246 69.7587 27.4218 70.588 27.4218C71.4172 27.4218 72.0884 27.1246 72.6007 26.5302C73.0153 26.0513 73.2228 25.4829 73.2228 24.8251L74.864 24.046H74.9503ZM84.5387 28.374L82.8975 29.153H82.8113V28.2441C82.3506 28.7346 81.7314 28.9799 80.9537 28.9799C79.8772 28.9799 79.0391 28.6538 78.4402 28.0018C77.8413 27.3497 77.542 26.5793 77.542 25.6906C77.542 24.7673 77.8671 23.9825 78.5179 23.3362C79.1456 22.713 79.9575 22.4014 80.9537 22.4014C81.6621 22.4014 82.2813 22.6466 82.8113 23.1371C82.8113 22.1158 82.6325 21.4435 82.2754 21.1203C81.9301 20.8087 81.4896 20.6529 80.9537 20.6529H78.8548V20.5664L79.5459 19.1122H80.9537C81.9618 19.1122 82.7995 19.4382 83.4677 20.0903C84.1816 20.7885 84.5387 21.6166 84.5387 22.5745V28.374ZM79.2348 25.6906C79.2348 26.2042 79.3903 26.6284 79.7014 26.9631C80.0007 27.2862 80.4212 27.4478 80.9626 27.4478C81.5269 27.4478 81.9647 27.2833 82.2754 26.9544C82.6211 26.5851 82.794 26.1696 82.794 25.708C82.794 25.1886 82.6152 24.7673 82.2585 24.4442C81.9013 24.121 81.4723 23.9595 80.9711 23.9595C80.447 23.9595 80.0268 24.1297 79.7099 24.4702C79.3933 24.8106 79.2348 25.2174 79.2348 25.6906ZM86.871 25.7512L88.5122 24.9722H88.5988V25.6647C88.5988 26.311 88.7857 26.8015 89.1601 27.1362C89.5173 27.4535 89.9492 27.6122 90.456 27.6122C91.0431 27.6122 91.5012 27.4247 91.8292 27.0496C92.1749 26.6572 92.3474 26.2302 92.3474 25.7685C92.3474 25.2723 92.1632 24.8799 91.7946 24.5913C91.478 24.3432 91.0287 24.2191 90.4471 24.2191C89.4222 24.2191 88.6132 23.9941 88.0198 23.544C87.4957 23.1516 87.234 22.5428 87.234 21.7176C87.234 20.9155 87.5996 20.2518 88.3309 19.7267C88.901 19.317 89.6094 19.1122 90.456 19.1122C91.2679 19.1122 91.9733 19.3661 92.5723 19.8739C93.033 20.272 93.3179 20.7337 93.4273 21.2588L91.7861 22.0379H91.6999V21.7868C91.6999 21.4868 91.6133 21.23 91.4408 21.0164C91.1644 20.6587 90.7696 20.4798 90.2573 20.4798C89.8482 20.4798 89.5143 20.6096 89.2552 20.8693C89.0016 21.1232 88.8752 21.406 88.8752 21.7176C88.8752 22.0869 89.0304 22.3812 89.3415 22.6005C89.5143 22.7217 89.8829 22.7823 90.4471 22.7823C91.6162 22.7823 92.4945 23.0506 93.082 23.5873C93.7211 24.1701 94.0406 24.9289 94.0406 25.8637C94.0406 26.6139 93.7096 27.3295 93.0473 28.0104C92.4197 28.6567 91.5558 28.9799 90.456 28.9799C89.4598 28.9799 88.6217 28.7029 87.942 28.1489C87.2281 27.5661 86.871 26.7669 86.871 25.7512ZM102.938 28.374L101.297 29.153H101.21V28.2441C100.75 28.7346 100.131 28.9799 99.353 28.9799C98.2761 28.9799 97.4384 28.6538 96.8394 28.0018C96.2405 27.3497 95.9409 26.5793 95.9409 25.6906C95.9409 24.7673 96.2663 23.9825 96.9172 23.3362C97.5449 22.713 98.3568 22.4014 99.353 22.4014C100.061 22.4014 100.681 22.6466 101.21 23.1371C101.21 22.1158 101.032 21.4435 100.675 21.1203C100.329 20.8087 99.8885 20.6529 99.353 20.6529H97.2541V20.5664L97.9451 19.1122H99.353C100.361 19.1122 101.199 19.4382 101.867 20.0903C102.581 20.7885 102.938 21.6166 102.938 22.5745V28.374ZM97.6341 25.6906C97.6341 26.2042 97.7896 26.6284 98.1007 26.9631C98.3999 27.2862 98.8205 27.4478 99.3619 27.4478C99.9261 27.4478 100.364 27.2833 100.675 26.9544C101.02 26.5851 101.193 26.1696 101.193 25.708C101.193 25.1886 101.015 24.7673 100.657 24.4442C100.301 24.121 99.8716 23.9595 99.3704 23.9595C98.8463 23.9595 98.4261 24.1297 98.1091 24.4702C97.7925 24.8106 97.6341 25.2174 97.6341 25.6906ZM121.596 24.046V24.6519C121.596 25.9041 121.208 26.9284 120.43 27.7248C119.612 28.5615 118.547 28.9799 117.234 28.9799C115.921 28.9799 114.856 28.5615 114.038 27.7248C113.261 26.9284 112.872 25.9041 112.872 24.6519V19.8912C112.872 18.639 113.261 17.6147 114.038 16.8184C114.856 15.9816 115.921 15.5632 117.234 15.5632C118.593 15.5632 119.659 15.9816 120.43 16.8184C121.208 17.6551 121.596 18.6217 121.596 19.7181L119.955 20.4971H119.869V19.8912C119.869 19.1179 119.661 18.4918 119.247 18.0128C118.734 17.4185 118.063 17.1213 117.234 17.1213C116.405 17.1213 115.734 17.4185 115.221 18.0128C114.807 18.4918 114.6 19.1179 114.6 19.8912V24.6519C114.6 25.4252 114.807 26.0513 115.221 26.5302C115.734 27.1246 116.405 27.4218 117.234 27.4218C118.063 27.4218 118.734 27.1246 119.247 26.5302C119.661 26.0513 119.869 25.4829 119.869 24.8251L121.51 24.046H121.596ZM124.62 25.5175V22.5745C124.62 21.6224 124.977 20.7943 125.691 20.0903C126.359 19.4382 127.197 19.1122 128.205 19.1122C129.201 19.1122 130.039 19.4382 130.718 20.0903C131.432 20.7827 131.789 21.6108 131.789 22.5745V25.5175C131.789 26.4697 131.432 27.2978 130.718 28.0018C130.05 28.6538 129.212 28.9799 128.205 28.9799C127.208 28.9799 126.37 28.6538 125.691 28.0018C124.977 27.3093 124.62 26.4812 124.62 25.5175ZM126.347 25.5175C126.347 26.1811 126.526 26.6687 126.883 26.9804C127.246 27.2862 127.686 27.4391 128.205 27.4391C128.723 27.4391 129.16 27.2862 129.517 26.9804C129.88 26.6687 130.062 26.1811 130.062 25.5175V22.5745C130.062 21.9109 129.88 21.4262 129.517 21.1203C129.16 20.8087 128.723 20.6529 128.205 20.6529C127.686 20.6529 127.246 20.8087 126.883 21.1203C126.526 21.4262 126.347 21.9109 126.347 22.5745V25.5175ZM134.381 29.153V22.5745C134.381 21.6224 134.738 20.7943 135.452 20.0903C136.12 19.4382 136.958 19.1122 137.966 19.1122C138.881 19.1122 139.673 19.4468 140.341 20.1163C140.468 20.2432 140.583 20.3933 140.687 20.5664C140.79 20.399 140.905 20.2518 141.032 20.1249C141.752 19.4498 142.544 19.1122 143.408 19.1122C144.404 19.1122 145.242 19.4382 145.921 20.0903C146.635 20.7827 146.992 21.6108 146.992 22.5745V28.374L145.351 29.153H145.265V22.5745C145.265 21.9109 145.083 21.4262 144.721 21.1203C144.363 20.8087 143.926 20.6529 143.408 20.6529C142.889 20.6529 142.449 20.8087 142.086 21.1203C141.729 21.4262 141.55 21.9109 141.55 22.5745V28.374L139.909 29.153H139.823V22.5745C139.823 21.9109 139.641 21.4262 139.278 21.1203C138.922 20.8087 138.484 20.6529 137.966 20.6529C137.447 20.6529 137.007 20.8087 136.644 21.1203C136.287 21.4262 136.108 21.9109 136.108 22.5745V28.374L134.467 29.153H134.381ZM156.753 18.939V25.5175C156.753 26.4697 156.397 27.2978 155.682 28.0018C155.015 28.6538 154.176 28.9799 153.169 28.9799C152.173 28.9799 151.334 28.6538 150.655 28.0018C149.941 27.3093 149.584 26.4812 149.584 25.5175V19.7181L151.225 18.939H151.312V25.5175C151.312 26.1811 151.49 26.6687 151.847 26.9804C152.21 27.2862 152.651 27.4391 153.169 27.4391C153.687 27.4391 154.125 27.2862 154.482 26.9804C154.845 26.6687 155.026 26.1811 155.026 25.5175V19.7181L156.667 18.939H156.753ZM159.345 29.153V22.5745C159.345 21.6224 159.702 20.7943 160.416 20.0903C161.084 19.4382 161.922 19.1122 162.93 19.1122C163.926 19.1122 164.764 19.4382 165.444 20.0903C166.158 20.7827 166.515 21.6108 166.515 22.5745V28.374L164.874 29.153H164.787V22.5745C164.787 21.9109 164.606 21.4262 164.243 21.1203C163.886 20.8087 163.448 20.6529 162.93 20.6529C162.412 20.6529 161.971 20.8087 161.608 21.1203C161.251 21.4262 161.073 21.9109 161.073 22.5745V28.374L159.431 29.153H159.345ZM175.671 28.374L174.03 29.153H173.943V28.2441C173.483 28.7346 172.864 28.9799 172.086 28.9799C171.009 28.9799 170.172 28.6538 169.573 28.0018C168.974 27.3497 168.674 26.5793 168.674 25.6906C168.674 24.7673 169 23.9825 169.65 23.3362C170.278 22.713 171.09 22.4014 172.086 22.4014C172.795 22.4014 173.414 22.6466 173.943 23.1371C173.943 22.1158 173.765 21.4435 173.408 21.1203C173.062 20.8087 172.622 20.6529 172.086 20.6529H169.987V20.5664L170.678 19.1122H172.086C173.094 19.1122 173.932 19.4382 174.6 20.0903C175.314 20.7885 175.671 21.6166 175.671 22.5745V28.374ZM170.367 25.6906C170.367 26.2042 170.523 26.6284 170.834 26.9631C171.133 27.2862 171.554 27.4478 172.095 27.4478C172.659 27.4478 173.097 27.2833 173.408 26.9544C173.754 26.5851 173.926 26.1696 173.926 25.708C173.926 25.1886 173.748 24.7673 173.391 24.4442C173.033 24.121 172.604 23.9595 172.104 23.9595C171.579 23.9595 171.159 24.1297 170.842 24.4702C170.526 24.8106 170.367 25.2174 170.367 25.6906ZM178.695 29.153V16.1691L180.336 15.3901H180.422V28.374L178.781 29.153H178.695ZM192.084 25.5175C192.084 26.1811 192.262 26.6687 192.619 26.9804C192.982 27.2862 193.423 27.4391 193.941 27.4391C194.459 27.4391 194.897 27.2862 195.254 26.9804C195.617 26.6687 195.798 26.1811 195.798 25.5175V22.5745C195.798 21.9109 195.617 21.4262 195.254 21.1203C194.897 20.8087 194.459 20.6529 193.941 20.6529C193.423 20.6529 192.982 20.8087 192.619 21.1203C192.262 21.4262 192.084 21.9109 192.084 22.5745V25.5175ZM190.356 25.5175V22.5745C190.356 21.6224 190.713 20.7943 191.427 20.0903C192.095 19.4382 192.933 19.1122 193.941 19.1122C194.701 19.1122 195.32 19.3574 195.798 19.8479V16.1691L197.439 15.3901H197.526V25.5175C197.526 26.4697 197.169 27.2978 196.454 28.0018C195.787 28.6538 194.948 28.9799 193.941 28.9799C192.945 28.9799 192.106 28.6538 191.427 28.0018C190.713 27.3093 190.356 26.4812 190.356 25.5175ZM207.719 24.9722V25.5175C207.719 26.4697 207.362 27.2978 206.648 28.0018C205.979 28.6538 205.142 28.9799 204.134 28.9799C203.137 28.9799 202.3 28.6538 201.62 28.0018C200.906 27.3093 200.549 26.4812 200.549 25.5175V22.5745C200.549 21.6224 200.906 20.7943 201.62 20.0903C202.288 19.4382 203.126 19.1122 204.134 19.1122C205.113 19.1122 205.951 19.4382 206.648 20.0903C207.362 20.7597 207.719 21.5041 207.719 22.3235V22.3408L202.449 26.4783C202.536 26.6745 202.656 26.839 202.812 26.9717C203.175 27.2833 203.615 27.4391 204.134 27.4391C204.652 27.4391 205.09 27.2833 205.447 26.9717C205.81 26.6601 205.991 26.2533 205.991 25.7512L207.632 24.9722H207.719ZM202.277 24.7298L205.887 21.7955C205.795 21.5127 205.651 21.2877 205.455 21.1203C205.093 20.8087 204.652 20.6529 204.134 20.6529C203.615 20.6529 203.175 20.8087 202.812 21.1203C202.455 21.4262 202.277 21.9109 202.277 22.5745V24.7298ZM217.652 29.153V16.1691L219.294 15.3901H219.38V28.374L217.739 29.153H217.652ZM228.968 28.374L227.327 29.153H227.241V28.2441C226.78 28.7346 226.161 28.9799 225.383 28.9799C224.307 28.9799 223.469 28.6538 222.87 28.0018C222.271 27.3497 221.972 26.5793 221.972 25.6906C221.972 24.7673 222.297 23.9825 222.948 23.3362C223.575 22.713 224.387 22.4014 225.383 22.4014C226.092 22.4014 226.711 22.6466 227.241 23.1371C227.241 22.1158 227.062 21.4435 226.705 21.1203C226.36 20.8087 225.919 20.6529 225.383 20.6529H223.284V20.5664L223.976 19.1122H225.383C226.391 19.1122 227.229 19.4382 227.897 20.0903C228.611 20.7885 228.968 21.6166 228.968 22.5745V28.374ZM223.664 25.6906C223.664 26.2042 223.82 26.6284 224.131 26.9631C224.431 27.2862 224.851 27.4478 225.392 27.4478C225.957 27.4478 226.394 27.2833 226.705 26.9544C227.051 26.5851 227.224 26.1696 227.224 25.708C227.224 25.1886 227.045 24.7673 226.688 24.4442C226.331 24.121 225.902 23.9595 225.401 23.9595C224.877 23.9595 224.456 24.1297 224.14 24.4702C223.823 24.8106 223.664 25.2174 223.664 25.6906ZM237.866 24.8251L239.507 24.046H239.593V24.6519C239.593 25.4252 239.801 26.0513 240.215 26.5302C240.728 27.1246 241.399 27.4218 242.228 27.4218C243.057 27.4218 243.728 27.1246 244.241 26.5302C244.655 26.0513 244.863 25.4252 244.863 24.6519V17.3117H239.913V17.2252L240.613 15.7364H246.59V24.6519C246.59 25.8984 246.202 26.9226 245.424 27.7248C244.606 28.5615 243.541 28.9799 242.228 28.9799C240.932 28.9799 239.867 28.5615 239.032 27.7248C238.254 26.9515 237.866 25.985 237.866 24.8251ZM256.783 18.939V25.5175C256.783 26.4697 256.426 27.2978 255.712 28.0018C255.044 28.6538 254.206 28.9799 253.198 28.9799C252.202 28.9799 251.364 28.6538 250.685 28.0018C249.97 27.3093 249.614 26.4812 249.614 25.5175V19.7181L251.255 18.939H251.341V25.5175C251.341 26.1811 251.52 26.6687 251.877 26.9804C252.24 27.2862 252.68 27.4391 253.198 27.4391C253.717 27.4391 254.154 27.2862 254.511 26.9804C254.874 26.6687 255.055 26.1811 255.055 25.5175V19.7181L256.697 18.939H256.783ZM261.413 29.153L258.079 19.6488L259.573 18.939H259.66L262.104 26.1581L264.497 18.939H264.584L266.078 19.6488L262.994 28.4432L261.5 29.153H261.413ZM274.543 24.9722V25.5175C274.543 26.4697 274.186 27.2978 273.472 28.0018C272.804 28.6538 271.966 28.9799 270.958 28.9799C269.962 28.9799 269.124 28.6538 268.445 28.0018C267.731 27.3093 267.374 26.4812 267.374 25.5175V22.5745C267.374 21.6224 267.731 20.7943 268.445 20.0903C269.113 19.4382 269.95 19.1122 270.958 19.1122C271.937 19.1122 272.775 19.4382 273.472 20.0903C274.186 20.7597 274.543 21.5041 274.543 22.3235V22.3408L269.274 26.4783C269.36 26.6745 269.481 26.839 269.637 26.9717C269.999 27.2833 270.44 27.4391 270.958 27.4391C271.477 27.4391 271.914 27.2833 272.271 26.9717C272.634 26.6601 272.816 26.2533 272.816 25.7512L274.457 24.9722H274.543ZM269.101 24.7298L272.712 21.7955C272.62 21.5127 272.476 21.2877 272.28 21.1203C271.917 20.8087 271.477 20.6529 270.958 20.6529C270.44 20.6529 269.999 20.8087 269.637 21.1203C269.28 21.4262 269.101 21.9109 269.101 22.5745V24.7298ZM277.135 29.153V22.5745C277.135 21.6224 277.492 20.7943 278.206 20.0903C278.874 19.4382 279.712 19.1122 280.719 19.1122C281.716 19.1122 282.554 19.4382 283.233 20.0903C283.947 20.7827 284.304 21.6108 284.304 22.5745V28.374L282.663 29.153H282.577V22.5745C282.577 21.9109 282.395 21.4262 282.033 21.1203C281.676 20.8087 281.238 20.6529 280.719 20.6529C280.201 20.6529 279.76 20.8087 279.398 21.1203C279.041 21.4262 278.862 21.9109 278.862 22.5745V28.374L277.221 29.153H277.135ZM288.036 29.153V20.8607H285.816V20.7741L286.516 19.2853H288.036V16.1691L289.677 15.3901H289.764V19.2853H291.984V19.3718L291.284 20.8607H289.764V28.374L288.122 29.153H288.036ZM300.665 18.939V25.5175C300.665 26.4697 300.308 27.2978 299.594 28.0018C298.926 28.6538 298.088 28.9799 297.08 28.9799C296.084 28.9799 295.246 28.6538 294.566 28.0018C293.852 27.3093 293.495 26.4812 293.495 25.5175V19.7181L295.136 18.939H295.223V25.5175C295.223 26.1811 295.401 26.6687 295.759 26.9804C296.121 27.2862 296.562 27.4391 297.08 27.4391C297.598 27.4391 298.036 27.2862 298.393 26.9804C298.756 26.6687 298.937 26.1811 298.937 25.5175V19.7181L300.579 18.939H300.665ZM304.984 25.5175C304.984 26.1811 305.162 26.6687 305.52 26.9804C305.883 27.2862 306.323 27.4391 306.841 27.4391C307.359 27.4391 307.797 27.2862 308.154 26.9804C308.517 26.6687 308.698 26.1811 308.698 25.5175V22.5745C308.698 21.9109 308.517 21.4262 308.154 21.1203C307.797 20.8087 307.359 20.6529 306.841 20.6529C306.323 20.6529 305.883 20.8087 305.52 21.1203C305.162 21.4262 304.984 21.9109 304.984 22.5745V25.5175ZM303.256 25.5175V22.5745C303.256 21.6224 303.613 20.7943 304.328 20.0903C304.995 19.4382 305.834 19.1122 306.841 19.1122C307.602 19.1122 308.22 19.3574 308.698 19.8479V16.1691L310.34 15.3901H310.426V25.5175C310.426 26.4697 310.069 27.2978 309.355 28.0018C308.687 28.6538 307.849 28.9799 306.841 28.9799C305.845 28.9799 305.007 28.6538 304.328 28.0018C303.613 27.3093 303.256 26.4812 303.256 25.5175ZM74.9503 42.9044V46.0724C74.9503 47.3247 74.5618 48.3489 73.7841 49.1451C72.9667 49.982 71.9012 50.4004 70.588 50.4004C69.2752 50.4004 68.2097 49.982 67.3922 49.1451C66.6145 48.3489 66.2261 47.3247 66.2261 46.0724V41.3115C66.2261 40.0595 66.6145 39.035 67.3922 38.2388C68.2097 37.4019 69.2752 36.9838 70.588 36.9838C71.9472 36.9838 73.0127 37.4019 73.7841 38.2388C74.5618 39.0757 74.9503 40.0422 74.9503 41.1387L73.3091 41.9176H73.2228V41.3115C73.2228 40.5385 73.0153 39.9122 72.6007 39.4332C72.0884 38.8389 71.4172 38.5416 70.588 38.5416C69.7587 38.5416 69.0879 38.8389 68.5753 39.4332C68.161 39.9122 67.9535 40.5385 67.9535 41.3115V46.0724C67.9535 46.8457 68.161 47.4717 68.5753 47.9507C69.0879 48.545 69.7587 48.8423 70.588 48.8423C71.4172 48.8423 72.0884 48.545 72.6007 47.9507C73.0153 47.4717 73.2228 46.9034 73.2228 46.2456V44.4799H70.2168V44.3931L70.9164 42.9044H74.9503ZM85.1435 40.3594V46.9381C85.1435 47.8902 84.7864 48.7182 84.0721 49.4221C83.4043 50.0743 82.5662 50.4004 81.5586 50.4004C80.5623 50.4004 79.7242 50.0743 79.045 49.4221C78.3307 48.7296 77.9736 47.9016 77.9736 46.9381V41.1387L79.6151 40.3594H79.7014V46.9381C79.7014 47.6017 79.8798 48.0892 80.2369 48.4009C80.5999 48.7067 81.0404 48.8596 81.5586 48.8596C82.0768 48.8596 82.5146 48.7067 82.8717 48.4009C83.2344 48.0892 83.4157 47.6017 83.4157 46.9381V41.1387L85.0569 40.3594H85.1435ZM88.2962 38.7928C88.0946 38.5852 87.994 38.337 87.994 38.0482C87.994 37.7542 88.0946 37.5031 88.2962 37.2952C88.4978 37.0876 88.7425 36.9838 89.0304 36.9838C89.3186 36.9838 89.5633 37.0876 89.7649 37.2952C89.9665 37.5031 90.0671 37.7542 90.0671 38.0482C90.0671 38.337 89.9665 38.5852 89.7649 38.7928C89.5633 39.0007 89.3186 39.1045 89.0304 39.1045C88.7425 39.1045 88.4978 39.0007 88.2962 38.7928ZM88.1668 50.5736V41.1387L89.808 40.3594H89.8943V49.7944L88.2531 50.5736H88.1668ZM93.3496 50.5736V37.5895L94.9908 36.8106H95.0774V49.7944L93.4362 50.5736H93.3496ZM98.5326 50.5736V37.5895L100.174 36.8106H100.26V49.7944L98.6189 50.5736H98.5326ZM110.453 46.3926V46.9381C110.453 47.8902 110.096 48.7182 109.382 49.4221C108.714 50.0743 107.876 50.4004 106.868 50.4004C105.872 50.4004 105.034 50.0743 104.355 49.4221C103.64 48.7296 103.283 47.9016 103.283 46.9381V43.995C103.283 43.0429 103.64 42.2149 104.355 41.5106C105.023 40.8587 105.861 40.5326 106.868 40.5326C107.847 40.5326 108.685 40.8587 109.382 41.5106C110.096 42.1801 110.453 42.9247 110.453 43.7438V43.7612L105.184 47.8987C105.27 48.0951 105.391 48.2595 105.547 48.3921C105.909 48.7038 106.35 48.8596 106.868 48.8596C107.387 48.8596 107.824 48.7038 108.181 48.3921C108.544 48.0807 108.726 47.6738 108.726 47.1718L110.367 46.3926H110.453ZM105.011 46.1503L108.622 43.2161C108.53 42.9332 108.386 42.7083 108.19 42.541C107.827 42.2293 107.387 42.0734 106.868 42.0734C106.35 42.0734 105.909 42.2293 105.547 42.541C105.19 42.8468 105.011 43.3313 105.011 43.995V46.1503ZM113.045 50.5736V43.995C113.045 43.0429 113.402 42.2149 114.116 41.5106C114.784 40.8587 115.622 40.5326 116.629 40.5326H117.795V40.619L117.104 42.0734H116.629C116.111 42.0734 115.671 42.2293 115.308 42.541C114.951 42.8468 114.772 43.3313 114.772 43.995C114.772 43.995 114.772 45.928 114.772 49.7944L113.131 50.5736H113.045ZM119.264 50.5736V43.995C119.264 43.0429 119.621 42.2149 120.335 41.5106C121.003 40.8587 121.841 40.5326 122.849 40.5326C123.765 40.5326 124.556 40.8672 125.225 41.5368C125.351 41.6635 125.466 41.8138 125.57 41.987C125.673 41.8193 125.789 41.6723 125.916 41.5453C126.635 40.8702 127.427 40.5326 128.291 40.5326C129.287 40.5326 130.125 40.8587 130.805 41.5106C131.519 42.203 131.876 43.0314 131.876 43.995V49.7944L130.234 50.5736H130.148V43.995C130.148 43.3313 129.967 42.8468 129.604 42.541C129.247 42.2293 128.809 42.0734 128.291 42.0734C127.773 42.0734 127.332 42.2293 126.969 42.541C126.612 42.8468 126.434 43.3313 126.434 43.995V49.7944L124.793 50.5736H124.706V43.995C124.706 43.3313 124.525 42.8468 124.162 42.541C123.805 42.2293 123.367 42.0734 122.849 42.0734C122.331 42.0734 121.89 42.2293 121.527 42.541C121.17 42.8468 120.992 43.3313 120.992 43.995V49.7944L119.35 50.5736H119.264ZM134.467 46.9381V43.995C134.467 43.0429 134.824 42.2149 135.538 41.5106C136.206 40.8587 137.044 40.5326 138.052 40.5326C139.048 40.5326 139.886 40.8587 140.566 41.5106C141.28 42.203 141.637 43.0314 141.637 43.995V46.9381C141.637 47.8902 141.28 48.7182 140.566 49.4221C139.898 50.0743 139.06 50.4004 138.052 50.4004C137.056 50.4004 136.218 50.0743 135.538 49.4221C134.824 48.7296 134.467 47.9016 134.467 46.9381ZM136.195 46.9381C136.195 47.6017 136.373 48.0892 136.73 48.4009C137.093 48.7067 137.534 48.8596 138.052 48.8596C138.57 48.8596 139.008 48.7067 139.365 48.4009C139.728 48.0892 139.909 47.6017 139.909 46.9381V43.995C139.909 43.3313 139.728 42.8468 139.365 42.541C139.008 42.2293 138.57 42.0734 138.052 42.0734C137.534 42.0734 137.093 42.2293 136.73 42.541C136.373 42.8468 136.195 43.3313 136.195 43.995V46.9381ZM153.298 48.6691H155.76C156.63 48.6691 157.321 48.395 157.833 47.847C158.208 47.4488 158.395 46.9237 158.395 46.2714C158.395 45.5963 158.196 45.028 157.799 44.5663C157.367 44.0352 156.687 43.7701 155.76 43.7701H153.298V48.6691ZM153.298 42.2119H155.76C156.336 42.2119 156.8 42.0243 157.151 41.6491C157.462 41.3145 157.617 40.879 157.617 40.342C157.617 39.9037 157.43 39.5085 157.056 39.1562C156.722 38.8622 156.29 38.7148 155.76 38.7148H153.298V42.2119ZM151.571 50.2272V37.5895L152.486 37.1567H155.76C156.733 37.1567 157.542 37.4222 158.187 37.9533C158.953 38.5763 159.336 39.3755 159.336 40.3509C159.336 41.3433 158.899 42.1687 158.023 42.8264C158.305 42.9476 158.585 43.1293 158.861 43.3719C159.702 44.1394 160.122 45.0915 160.122 46.2282C160.122 47.3709 159.754 48.3086 159.017 49.0413C158.228 49.832 157.142 50.2272 155.76 50.2272H151.571ZM169.538 49.7944L167.897 50.5736H167.81V49.6647C167.35 50.1552 166.731 50.4004 165.953 50.4004C164.876 50.4004 164.038 50.0743 163.439 49.4221C162.841 48.7703 162.541 47.9999 162.541 47.1109C162.541 46.1876 162.866 45.4032 163.517 44.7569C164.145 44.1335 164.957 43.8218 165.953 43.8218C166.661 43.8218 167.281 44.067 167.81 44.5574C167.81 43.5363 167.632 42.8638 167.275 42.541C166.929 42.2293 166.489 42.0734 165.953 42.0734H163.854V41.987L164.545 40.5326H165.953C166.961 40.5326 167.799 40.8587 168.467 41.5106C169.181 42.209 169.538 43.037 169.538 43.995V49.7944ZM164.234 47.1109C164.234 47.6246 164.39 48.049 164.701 48.3836C165 48.7067 165.42 48.8681 165.962 48.8681C166.526 48.8681 166.964 48.7038 167.275 48.3747C167.62 48.0054 167.793 47.5899 167.793 47.1283C167.793 46.609 167.615 46.1876 167.257 45.8648C166.901 45.5413 166.472 45.3799 165.97 45.3799C165.446 45.3799 165.026 45.5502 164.709 45.8907C164.393 46.2312 164.234 46.6378 164.234 47.1109ZM179.299 46.3926V46.9381C179.299 47.8902 178.942 48.7182 178.228 49.4221C177.56 50.0743 176.722 50.4004 175.714 50.4004C174.718 50.4004 173.88 50.0743 173.201 49.4221C172.486 48.7296 172.129 47.9016 172.129 46.9381V43.995C172.129 43.037 172.486 42.209 173.201 41.5106C173.869 40.8587 174.706 40.5326 175.714 40.5326C176.699 40.5326 177.537 40.8587 178.228 41.5106C178.942 42.1861 179.299 42.9302 179.299 43.7438V43.7612L177.658 44.5405H177.572V43.995C177.572 43.3313 177.39 42.8468 177.027 42.541C176.67 42.2293 176.233 42.0734 175.714 42.0734C175.196 42.0734 174.755 42.2293 174.393 42.541C174.036 42.8468 173.857 43.3313 173.857 43.995V46.9381C173.857 47.6017 174.036 48.0892 174.393 48.4009C174.755 48.7067 175.196 48.8596 175.714 48.8596C176.233 48.8596 176.67 48.7038 177.027 48.3921C177.39 48.0807 177.572 47.6738 177.572 47.1718L179.213 46.3926H179.299ZM188.455 49.7944L186.814 50.5736H186.728V49.6647C186.267 50.1552 185.648 50.4004 184.871 50.4004C183.794 50.4004 182.956 50.0743 182.357 49.4221C181.758 48.7703 181.459 47.9999 181.459 47.1109C181.459 46.1876 181.784 45.4032 182.435 44.7569C183.062 44.1335 183.874 43.8218 184.871 43.8218C185.579 43.8218 186.198 44.067 186.728 44.5574C186.728 43.5363 186.549 42.8638 186.193 42.541C185.847 42.2293 185.406 42.0734 184.871 42.0734H182.772V41.987L183.463 40.5326H184.871C185.879 40.5326 186.716 40.8587 187.384 41.5106C188.098 42.209 188.455 43.037 188.455 43.995V49.7944ZM183.152 47.1109C183.152 47.6246 183.307 48.049 183.618 48.3836C183.918 48.7067 184.338 48.8681 184.879 48.8681C185.444 48.8681 185.881 48.7038 186.193 48.3747C186.538 48.0054 186.711 47.5899 186.711 47.1283C186.711 46.609 186.532 46.1876 186.175 45.8648C185.818 45.5413 185.389 45.3799 184.888 45.3799C184.364 45.3799 183.944 45.5502 183.627 45.8907C183.31 46.2312 183.152 46.6378 183.152 47.1109ZM198.389 50.5736V41.3115C198.389 40.0651 198.778 39.0409 199.555 38.2388C200.373 37.4019 201.439 36.9838 202.752 36.9838C204.042 36.9838 205.107 37.4019 205.948 38.2388C206.725 39.0121 207.114 40.0363 207.114 41.3115V49.7944L205.473 50.5736H205.386V44.4799H200.117V49.7944L198.476 50.5736H198.389ZM200.117 42.9044H205.386V41.3115C205.386 40.5385 205.179 39.9122 204.764 39.4332C204.252 38.8389 203.581 38.5416 202.752 38.5416C201.922 38.5416 201.252 38.8389 200.739 39.4332C200.324 39.9122 200.117 40.5385 200.117 41.3115V42.9044ZM211.865 46.9381C211.865 47.6017 212.043 48.0892 212.4 48.4009C212.763 48.7067 213.204 48.8596 213.722 48.8596C214.24 48.8596 214.678 48.7067 215.035 48.4009C215.398 48.0892 215.579 47.6017 215.579 46.9381V43.995C215.579 43.3313 215.398 42.8468 215.035 42.541C214.678 42.2293 214.24 42.0734 213.722 42.0734C213.204 42.0734 212.763 42.2293 212.4 42.541C212.043 42.8468 211.865 43.3313 211.865 43.995V46.9381ZM210.137 46.9381V43.995C210.137 43.0429 210.494 42.2149 211.208 41.5106C211.876 40.8587 212.714 40.5326 213.722 40.5326C214.73 40.5326 215.568 40.8587 216.236 41.5106C216.95 42.209 217.307 43.037 217.307 43.995V50.4868C217.307 51.4389 216.95 52.267 216.236 52.9712C215.568 53.6231 214.73 53.9492 213.722 53.9492H211.062V53.8628L211.753 52.4084H213.722C214.24 52.4084 214.678 52.2526 215.035 51.9412C215.398 51.6351 215.579 51.1505 215.579 50.4868V49.6647C215.141 50.1552 214.523 50.4004 213.722 50.4004C212.726 50.4004 211.888 50.0743 211.208 49.4221C210.494 48.7296 210.137 47.9016 210.137 46.9381ZM227.327 40.3594V46.9381C227.327 47.8902 226.97 48.7182 226.256 49.4221C225.588 50.0743 224.75 50.4004 223.742 50.4004C222.746 50.4004 221.908 50.0743 221.229 49.4221C220.514 48.7296 220.158 47.9016 220.158 46.9381V41.1387L221.799 40.3594H221.885V46.9381C221.885 47.6017 222.064 48.0892 222.421 48.4009C222.784 48.7067 223.224 48.8596 223.742 48.8596C224.261 48.8596 224.698 48.7067 225.055 48.4009C225.418 48.0892 225.599 47.6017 225.599 46.9381V41.1387L227.241 40.3594H227.327ZM230.48 38.7928C230.279 38.5852 230.178 38.337 230.178 38.0482C230.178 37.7542 230.279 37.5031 230.48 37.2952C230.681 37.0876 230.926 36.9838 231.214 36.9838C231.502 36.9838 231.747 37.0876 231.949 37.2952C232.15 37.5031 232.251 37.7542 232.251 38.0482C232.251 38.337 232.15 38.5852 231.949 38.7928C231.747 39.0007 231.502 39.1045 231.214 39.1045C230.926 39.1045 230.681 39.0007 230.48 38.7928ZM230.351 50.5736V41.1387L231.992 40.3594H232.078V49.7944L230.437 50.5736H230.351ZM235.102 50.5736V43.995C235.102 43.0429 235.458 42.2149 236.173 41.5106C236.84 40.8587 237.679 40.5326 238.686 40.5326C239.682 40.5326 240.521 40.8587 241.2 41.5106C241.914 42.203 242.271 43.0314 242.271 43.995V49.7944L240.63 50.5736H240.543V43.995C240.543 43.3313 240.362 42.8468 239.999 42.541C239.642 42.2293 239.204 42.0734 238.686 42.0734C238.168 42.0734 237.728 42.2293 237.365 42.541C237.007 42.8468 236.829 43.3313 236.829 43.995V49.7944L235.188 50.5736H235.102ZM251.428 49.7944L249.786 50.5736H249.7V49.6647C249.239 50.1552 248.62 50.4004 247.843 50.4004C246.766 50.4004 245.928 50.0743 245.329 49.4221C244.73 48.7703 244.431 47.9999 244.431 47.1109C244.431 46.1876 244.756 45.4032 245.407 44.7569C246.035 44.1335 246.847 43.8218 247.843 43.8218C248.551 43.8218 249.17 44.067 249.7 44.5574C249.7 43.5363 249.522 42.8638 249.164 42.541C248.819 42.2293 248.378 42.0734 247.843 42.0734H245.744V41.987L246.435 40.5326H247.843C248.85 40.5326 249.689 40.8587 250.356 41.5106C251.071 42.209 251.428 43.037 251.428 43.995V49.7944ZM246.124 47.1109C246.124 47.6246 246.279 48.049 246.59 48.3836C246.89 48.7067 247.31 48.8681 247.851 48.8681C248.416 48.8681 248.853 48.7038 249.164 48.3747C249.51 48.0054 249.683 47.5899 249.683 47.1283C249.683 46.609 249.504 46.1876 249.147 45.8648C248.79 45.5413 248.361 45.3799 247.86 45.3799C247.336 45.3799 246.915 45.5502 246.599 45.8907C246.282 46.2312 246.124 46.6378 246.124 47.1109ZM255.747 46.9381C255.747 47.6017 255.925 48.0892 256.282 48.4009C256.645 48.7067 257.086 48.8596 257.604 48.8596C258.122 48.8596 258.56 48.7067 258.917 48.4009C259.28 48.0892 259.461 47.6017 259.461 46.9381V43.995C259.461 43.3313 259.28 42.8468 258.917 42.541C258.56 42.2293 258.122 42.0734 257.604 42.0734C257.086 42.0734 256.645 42.2293 256.282 42.541C255.925 42.8468 255.747 43.3313 255.747 43.995V46.9381ZM254.019 46.9381V43.995C254.019 43.0429 254.376 42.2149 255.09 41.5106C255.758 40.8587 256.596 40.5326 257.604 40.5326C258.612 40.5326 259.449 40.8587 260.118 41.5106C260.832 42.209 261.189 43.037 261.189 43.995V50.4868C261.189 51.4389 260.832 52.267 260.118 52.9712C259.449 53.6231 258.612 53.9492 257.604 53.9492H254.943V53.8628L255.634 52.4084H257.604C258.122 52.4084 258.56 52.2526 258.917 51.9412C259.28 51.6351 259.461 51.1505 259.461 50.4868V49.6647C259.023 50.1552 258.404 50.4004 257.604 50.4004C256.607 50.4004 255.77 50.0743 255.09 49.4221C254.376 48.7296 254.019 47.9016 254.019 46.9381ZM270.604 49.7944L268.963 50.5736H268.877V49.6647C268.416 50.1552 267.797 50.4004 267.019 50.4004C265.942 50.4004 265.105 50.0743 264.506 49.4221C263.907 48.7703 263.607 47.9999 263.607 47.1109C263.607 46.1876 263.933 45.4032 264.584 44.7569C265.211 44.1335 266.023 43.8218 267.019 43.8218C267.728 43.8218 268.347 44.067 268.877 44.5574C268.877 43.5363 268.698 42.8638 268.341 42.541C267.996 42.2293 267.555 42.0734 267.019 42.0734H264.92V41.987L265.611 40.5326H267.019C268.027 40.5326 268.865 40.8587 269.533 41.5106C270.247 42.209 270.604 43.037 270.604 43.995V49.7944ZM265.3 47.1109C265.3 47.6246 265.456 48.049 265.767 48.3836C266.066 48.7067 266.487 48.8681 267.028 48.8681C267.592 48.8681 268.03 48.7038 268.341 48.3747C268.687 48.0054 268.859 47.5899 268.859 47.1283C268.859 46.609 268.681 46.1876 268.324 45.8648C267.967 45.5413 267.538 45.3799 267.037 45.3799C266.513 45.3799 266.092 45.5502 265.775 45.8907C265.459 46.2312 265.3 46.6378 265.3 47.1109Z" fill="#108938"/>
<path fill-rule="evenodd" clip-rule="evenodd" d="M56.7583 6.64771V59.5533H54.9155V6.64771H56.7583Z" fill="#108938"/>
</svg>
